<svg xmlns="http://www.w3.org/2000/svg" viewBox="0 0 291.64 101.57"><defs><style>.cls-1{fill:none;stroke:#d8af84;stroke-miterlimit:10;stroke-width:1.7px;}</style></defs><title>Fichier 2pictocasque</title><g id="Calque_2" data-name="Calque 2"><g id="Calque_9" data-name="Calque 9"><path class="cls-1" d="M99.86,58.71s-1-53.95,47.59-53.95C198,4.76,196.7,59,196.7,59"/><path class="cls-1" d="M95.4,59.57S94.3.85,147.19.85c55.07,0,53.61,59.09,53.61,59.09"/><rect class="cls-1" x="106.9" y="51.34" width="11.39" height="49.26" rx="5.36" ry="5.36"/><path class="cls-1" d="M101.89,93.41H99.82A10.79,10.79,0,0,1,89.05,82.65V69.31A10.8,10.8,0,0,1,99.82,58.54h2.07Z"/><rect class="cls-1" x="178.27" y="51.47" width="11.39" height="49.26" rx="5.36" ry="5.36" transform="translate(367.94 152.19) rotate(-180)"/><path class="cls-1" d="M194.67,93.54h2.08a10.8,10.8,0,0,0,10.77-10.76V69.44a10.81,10.81,0,0,0-10.77-10.77h-2.08Z"/><rect class="cls-1" x="6.5" y="39.73" width="25.57" height="25.57" transform="translate(-31.49 29.02) rotate(-45)"/><rect class="cls-1" x="19.6" y="35.32" width="34.39" height="34.39" transform="translate(-26.36 41.4) rotate(-45)"/><rect class="cls-1" x="259.57" y="39.73" width="25.57" height="25.57" transform="translate(427.81 282.24) rotate(-135)"/><rect class="cls-1" x="237.66" y="35.32" width="34.39" height="34.39" transform="translate(397.92 269.86) rotate(-135)"/></g></g></svg>