<svg xmlns="http://www.w3.org/2000/svg" viewBox="0 0 1198.57 299.16"><defs><style>.cls-1{fill:#fff;}</style></defs><title>Fichier 1titre</title><g id="Calque_2" data-name="Calque 2"><g id="Calque_2-2" data-name="Calque 2"><path class="cls-1" d="M158.94,106.42a9.59,9.59,0,0,1,2.52,4.13,27,27,0,0,1,1.17,6.18c.19,2.36.29,4.91.29,7.62,0,2.33,0,4.72-.13,7.17s-.13,5-.13,7.5a56.64,56.64,0,0,0,.93,10.66A21.69,21.69,0,0,0,167,158a16.07,16.07,0,0,0,6.55,5.43,25.1,25.1,0,0,0,10.6,1.94,38.69,38.69,0,0,0,9.21-1.1,47.41,47.41,0,0,0,8.73-3.07,57,57,0,0,0,8.17-4.69,90.66,90.66,0,0,0,7.63-5.88,36.21,36.21,0,0,0,.8,6.24,13.8,13.8,0,0,0,1.78,4.39,8,8,0,0,0,2.94,2.72,10.28,10.28,0,0,0,4.3,1.06,21.11,21.11,0,0,0,6.14-.48,25,25,0,0,0,5.94-2.33,61,61,0,0,0,6.72-4.23q3.63-2.58,8.47-6.14a25.25,25.25,0,0,1-5.07,1.78,22,22,0,0,1-5,.61,12.36,12.36,0,0,1-6.75-1.74,6.26,6.26,0,0,1-2.88-5.43v-5.82q0-3.87.06-8.63c.05-3.16.09-6.47.13-9.91s.1-6.7.17-9.76.1-5.74.12-8,0-3.91,0-4.81a4.61,4.61,0,0,0-1.55-3.75,5.69,5.69,0,0,0-3.75-1.29,11,11,0,0,0-4.43,1,34.16,34.16,0,0,0-4.78,2.59q-2.43,1.55-4.75,3.29l-4.2,3.17A6.1,6.1,0,0,1,216,105a3.8,3.8,0,0,1,1.91,1.42,5.3,5.3,0,0,1,.78,2.65q0,7.7-.33,15.44c-.21,5.17-.38,10.63-.51,16.35a24.25,24.25,0,0,1-2.69,6.37,12.77,12.77,0,0,1-3.87,4,14.72,14.72,0,0,1-5.37,2.07,41.66,41.66,0,0,1-7.14.65,25.38,25.38,0,0,1-9.21-1.23,14.38,14.38,0,0,1-6.14-4.07A16.93,16.93,0,0,1,180,142a34.82,34.82,0,0,1-1.17-9c0-3.87.05-7.75.13-11.63s.13-8,.13-12.21a45.25,45.25,0,0,0-.26-4.88,16,16,0,0,0-1.1-4.52,8.22,8.22,0,0,0-2.42-3.33,6.6,6.6,0,0,0-4.3-1.29,17.53,17.53,0,0,0-5.84,1,35,35,0,0,0-5.63,2.55,51.12,51.12,0,0,0-5.36,3.49q-2.62,1.94-5,3.81a16.33,16.33,0,0,1,5.43-1.16A6.19,6.19,0,0,1,158.94,106.42Z"/><path class="cls-1" d="M370.39,151.78a62.48,62.48,0,0,0-5.37,3.56,16.83,16.83,0,0,0-3.19,3,5.29,5.29,0,0,0-1.2,2.56c-.13.64.25,1.49,1.13,2.55a14,14,0,0,0,4,3.07,30.05,30.05,0,0,0,6.79,2.55,37.37,37.37,0,0,0,9.43,1.07,44,44,0,0,0,9.76-1.3,80.37,80.37,0,0,0,11.63-3.68,93.23,93.23,0,0,0,11.89-5.75,59.18,59.18,0,0,0,10.5-7.56,39.35,39.35,0,0,0,7.5-9.08,20,20,0,0,0,2.87-10.31,16.19,16.19,0,0,0-2.1-8,18.17,18.17,0,0,0-6.88-6.62,46.62,46.62,0,0,0-8.5-3.69q-4.87-1.61-10.08-3.2t-10.27-3.32a50.8,50.8,0,0,1-9.08-4.08,22.17,22.17,0,0,1-6.46-5.46,11.8,11.8,0,0,1-2.46-7.52,11.5,11.5,0,0,1,1.74-6.5,13.42,13.42,0,0,1,4.53-4.2,20.22,20.22,0,0,1,6.27-2.26,36.28,36.28,0,0,1,6.91-.68c.56,0,1.42,0,2.59.06s2.44.14,3.84.29,2.84.38,4.33.68a22.63,22.63,0,0,1,4,1.2,9.39,9.39,0,0,1,3,1.84,3.43,3.43,0,0,1,1.17,2.59A5.06,5.06,0,0,1,418,86a12.49,12.49,0,0,1-2.46,2.9q3.1-1.94,5.52-3.58t4.11-2.94q1.94-1.42,3.42-2.65,1.81-1.56,3.33-3.07a16.2,16.2,0,0,0,2.36-2.88,5,5,0,0,0,.87-2.39A1.6,1.6,0,0,0,434,69.84c-.43-.17-1.14-.4-2.13-.68a31,31,0,0,0-3.65-.74c-1.45-.22-3.08-.41-4.91-.58s-3.78-.26-5.85-.26a61.6,61.6,0,0,0-9.31.81,81,81,0,0,0-10.76,2.45A76.7,76.7,0,0,0,386.58,75,49.6,49.6,0,0,0,377,80.92a31.87,31.87,0,0,0-7.08,7.69,20.08,20.08,0,0,0-3.17,9.54A15.73,15.73,0,0,0,373.39,113a45,45,0,0,0,10.54,5.75A131.57,131.57,0,0,0,400.05,124a47.56,47.56,0,0,1,10.47,3.84,27.54,27.54,0,0,1,6.69,4.75,15.41,15.41,0,0,1,3.52,5.2,14.4,14.4,0,0,1,1,5.2,12.89,12.89,0,0,1-2,7.27,15.18,15.18,0,0,1-5.1,4.85,23.52,23.52,0,0,1-7.05,2.68,37.2,37.2,0,0,1-7.85.84,50,50,0,0,1-5.36-.32c-2-.21-4-.53-6-.94a43,43,0,0,1-5.69-1.55,16,16,0,0,1-4.33-2.16,4.16,4.16,0,0,1-1.84-2.78q-.19-1.56,1.68-3.36Q373.62,149.84,370.39,151.78Z"/><path class="cls-1" d="M527.66,156.14a9.75,9.75,0,0,1-4.85-1.09,8.25,8.25,0,0,1-3-2.94,13,13,0,0,1-1.55-4.33,29.64,29.64,0,0,1-.45-5.27q0-4.65.42-10.7t.61-13.28a26.67,26.67,0,0,0-1.48-10.24,18.39,18.39,0,0,0-4.24-6.62,17.4,17.4,0,0,0-5.75-3.75,26.12,26.12,0,0,0-6-1.62,24.74,24.74,0,0,0-8.88.62,43,43,0,0,0-9.27,3.42,54.83,54.83,0,0,0-8.79,5.5,47.7,47.7,0,0,0-7.37,6.88q.19-6.33.32-12.51t.26-11.79c.09-3.75.16-7.26.23-10.53s.12-6.19.16-8.73.07-4.66.1-6.36,0-2.88,0-3.53c0-1.25,0-2.6-.07-4.07a43.26,43.26,0,0,0-.35-4.39,25,25,0,0,0-.94-4.23A11.77,11.77,0,0,0,464.94,43a9.11,9.11,0,0,0-3-2.56,9.25,9.25,0,0,0-4.39-1,18,18,0,0,0-5.85,1A38.43,38.43,0,0,0,445.88,43c-16,5.27-111.48,48.53-94.52,9.51,8.91-20.49,30-27.1,48-28.76a100.21,100.21,0,0,1,40.21,4.86c15.75,5.13,47.21,12.19,75.2-1a20,20,0,0,0,10.48-10.89c1.6-4.29,1.72-9.5-3.86-13.56A17.63,17.63,0,0,0,502,2.63c-3.22,1.93-5.87,4.64-5.13,8.16,0,0,15.7-13.15,19.51-2.55s-18.66,34.36-75.5,11.45S346.7,32.34,341.18,43.05s-5.09,38.72,24.61,32.78c28-5.61,61.37-22.56,83.57-23.36l.13.21q2.43,4.4,2.23,12.28,0,5.17-.19,18-.06,5.49-.19,13.18t-.29,18.13q-.17,10.44-.42,23.81t-.52,30.18l15.51-11.11q.45-12.09,1.48-20.71t2.33-14.35a48.17,48.17,0,0,1,2.65-8.72,9.87,9.87,0,0,1,2.52-3.85,10.92,10.92,0,0,1,3.88-1.49,26.3,26.3,0,0,1,5.36-.51,27.86,27.86,0,0,1,9.27,1.29,12,12,0,0,1,5.63,4,15.89,15.89,0,0,1,2.78,6.82,57.43,57.43,0,0,1,.74,9.89q0,5-.29,10.18c-.2,3.42-.36,6.56-.49,9.4a52.78,52.78,0,0,0,.33,8.18,15.59,15.59,0,0,0,1.61,5.42,7.54,7.54,0,0,0,3.07,3.11,10.43,10.43,0,0,0,4.62,1.06,21,21,0,0,0,5.66-.68,28.75,28.75,0,0,0,6.27-2.48,61.13,61.13,0,0,0,7.23-4.59q3.91-2.85,8.63-7.05a23.23,23.23,0,0,1-5.75,3.07A16.47,16.47,0,0,1,527.66,156.14Z"/><path class="cls-1" d="M618.15,156.08q-4,0-5.92-1.68a8.2,8.2,0,0,1-2.55-4.39,23.14,23.14,0,0,1-.52-6.14c.09-2.29.13-4.61.13-7s0-4.72.07-7.18.1-5.18.19-8.17.19-6.39.32-10.18.28-8.16.46-13.12q-6.27-1.09-11.18-1.45t-8.53-.36a41.4,41.4,0,0,0-7.63.78,67.89,67.89,0,0,0-8.5,2.2,89.08,89.08,0,0,0-8.75,3.36,69.3,69.3,0,0,0-8.31,4.33,61.51,61.51,0,0,0-7.2,5.1,31.65,31.65,0,0,0-5.43,5.62,20.35,20.35,0,0,0-2.23,4,37.14,37.14,0,0,0-1.88,5.36,56.4,56.4,0,0,0-1.32,6.3,43.27,43.27,0,0,0-.52,6.75,32.67,32.67,0,0,0,1.36,9.24,27,27,0,0,0,4.07,8.41,22,22,0,0,0,6.72,6.1,17.92,17.92,0,0,0,9.31,2.36,26,26,0,0,0,8.4-1.45,45.1,45.1,0,0,0,8.43-3.94,69.56,69.56,0,0,0,8.11-5.69q3.94-3.19,7.5-6.69v7.69a10.3,10.3,0,0,0,1.42,5.88,9,9,0,0,0,3.39,3,11.31,11.31,0,0,0,4.11,1.13,20.54,20.54,0,0,0,3.49,0,21.29,21.29,0,0,0,5.42-1.1,41.19,41.19,0,0,0,6.14-2.58,50.48,50.48,0,0,0,6.3-3.85,45.24,45.24,0,0,0,5.85-4.94,49.29,49.29,0,0,1-5.62,1.65A23.12,23.12,0,0,1,618.15,156.08Zm-25.37-38.93c0,2.9,0,5.59,0,8v12.54a36.17,36.17,0,0,1-2.55,6.85,20.84,20.84,0,0,1-4,5.52,17.61,17.61,0,0,1-5.62,3.72,19.16,19.16,0,0,1-7.43,1.36,15,15,0,0,1-7.92-2.1,19.41,19.41,0,0,1-5.82-5.46,25.58,25.58,0,0,1-3.58-7.6,30.07,30.07,0,0,1-1.23-8.43,36,36,0,0,1,1-8.53,46,46,0,0,1,2.43-7.43,30.91,30.91,0,0,1,3-5.53,8.62,8.62,0,0,1,2.71-2.81,7,7,0,0,1,1.88-.68,26.45,26.45,0,0,1,2.84-.48c1.08-.13,2.27-.24,3.59-.33s2.7-.13,4.16-.13q4,0,8.41.42a52,52,0,0,1,8.27,1.46Q592.81,112.79,592.78,117.15Z"/><path class="cls-1" d="M704.63,99a23.32,23.32,0,0,1-3.23.72,20.09,20.09,0,0,1-2.72.19,18.53,18.53,0,0,1-4.2-.48c-1.38-.33-2.77-.69-4.17-1.1s-2.82-.78-4.26-1.1a19.85,19.85,0,0,0-4.43-.49,19.12,19.12,0,0,0-7,1.49,44.87,44.87,0,0,0-7.47,3.84,78.47,78.47,0,0,0-7.3,5.27q-3.59,2.91-6.62,5.82c0-1.64-.06-3.36-.17-5.17a16.33,16.33,0,0,0-1-5,8.63,8.63,0,0,0-2.78-3.75,8.49,8.49,0,0,0-5.33-1.48,17.3,17.3,0,0,0-5.59.93,34.84,34.84,0,0,0-5.49,2.46,64.23,64.23,0,0,0-5.46,3.39q-2.72,1.88-5.43,3.69a11.31,11.31,0,0,1,2.87-1,14.68,14.68,0,0,1,2.82-.29A8.09,8.09,0,0,1,633,108.6a9.49,9.49,0,0,1,2.81,4.2,20.25,20.25,0,0,1,1.07,5.72q.17,3.14.16,6.17,0,4.78-.06,10.76t-.17,12.05c-.06,4.05-.14,7.92-.22,11.6s-.15,6.82-.2,9.41a28,28,0,0,1,3.36-3q1.88-1.49,5-3.75c2.1-1.51,4.78-3.3,8-5.36q-.25-3.3-.26-7.79c0-3,.12-6.15.35-9.47s.61-6.63,1.1-9.95a75.75,75.75,0,0,1,1.94-9.24,33.68,33.68,0,0,1,2.94-7.37,10,10,0,0,1,4.07-4.26,4.23,4.23,0,0,1,2.69-.23c1.14.19,2.47.5,4,.9s3.23.81,5.11,1.2a33.09,33.09,0,0,0,6,.65,20.32,20.32,0,0,0,5.84-.55,23.26,23.26,0,0,0,5.27-2.14,48.16,48.16,0,0,0,5.69-3.71Q700.55,102.14,704.63,99Z"/><path class="cls-1" d="M802.09,165.39a38.69,38.69,0,0,0,9.21-1.1,47.41,47.41,0,0,0,8.73-3.07,57,57,0,0,0,8.17-4.69,90.66,90.66,0,0,0,7.63-5.88,36.21,36.21,0,0,0,.8,6.24,13.8,13.8,0,0,0,1.78,4.39,8,8,0,0,0,2.94,2.72,10.28,10.28,0,0,0,4.3,1.06,21.11,21.11,0,0,0,6.14-.48,25,25,0,0,0,5.94-2.33,62,62,0,0,0,6.73-4.23q3.62-2.58,8.46-6.14a25.25,25.25,0,0,1-5.07,1.78,22,22,0,0,1-5,.61,12.36,12.36,0,0,1-6.75-1.74,6.26,6.26,0,0,1-2.88-5.43v-5.82q0-3.87.07-8.63c0-3.16.08-6.47.12-9.91s.1-6.7.17-9.76.1-5.74.12-8,0-3.91,0-4.81a4.61,4.61,0,0,0-1.55-3.75,5.69,5.69,0,0,0-3.75-1.29,11,11,0,0,0-4.43,1,34.73,34.73,0,0,0-4.78,2.59q-2.43,1.55-4.75,3.29l-4.2,3.17A6.13,6.13,0,0,1,834,105a3.81,3.81,0,0,1,1.9,1.42,5.2,5.2,0,0,1,.78,2.65q0,7.7-.33,15.44c-.21,5.17-.38,10.63-.51,16.35a24.25,24.25,0,0,1-2.69,6.37,12.77,12.77,0,0,1-3.87,4,14.72,14.72,0,0,1-5.37,2.07,41.66,41.66,0,0,1-7.14.65,25.41,25.41,0,0,1-9.21-1.23,14.29,14.29,0,0,1-6.13-4.07A16.81,16.81,0,0,1,798,142a35.26,35.26,0,0,1-1.17-9c0-3.87.05-7.75.13-11.63s.13-8,.13-12.21a45.25,45.25,0,0,0-.26-4.88,16,16,0,0,0-1.09-4.52,8.24,8.24,0,0,0-2.43-3.33,6.6,6.6,0,0,0-4.3-1.29,17.53,17.53,0,0,0-5.84,1,35,35,0,0,0-5.63,2.55c-.59.34-1.17.71-1.76,1.07a17.88,17.88,0,0,1-1.9.11,18.53,18.53,0,0,1-4.2-.48c-1.38-.33-2.77-.69-4.17-1.1s-2.82-.78-4.26-1.1a19.85,19.85,0,0,0-4.43-.49,19.21,19.21,0,0,0-7,1.49,44.79,44.79,0,0,0-7.46,3.84,78.47,78.47,0,0,0-7.3,5.27q-3.59,2.91-6.63,5.82c0-1.64-.05-3.36-.16-5.17a16.63,16.63,0,0,0-1-5,8.63,8.63,0,0,0-2.78-3.75A8.49,8.49,0,0,0,719,97.81a17.3,17.3,0,0,0-5.59.93A34.44,34.44,0,0,0,708,101.2a62.84,62.84,0,0,0-5.47,3.39q-2.72,1.88-5.42,3.69a11.31,11.31,0,0,1,2.87-1,14.66,14.66,0,0,1,2.81-.29,8.1,8.1,0,0,1,5.4,1.62,9.49,9.49,0,0,1,2.81,4.2,20.26,20.26,0,0,1,1.06,5.72q.16,3.14.17,6.17,0,4.78-.07,10.76T712,147.5q-.09,6.08-.23,11.6c-.08,3.69-.15,6.82-.19,9.41a28,28,0,0,1,3.36-3q1.88-1.49,5-3.75t8-5.36c-.18-2.2-.26-4.8-.26-7.79s.11-6.15.35-9.47.6-6.63,1.1-9.95a75.75,75.75,0,0,1,1.94-9.24,33.68,33.68,0,0,1,2.94-7.37,10,10,0,0,1,4.07-4.26,4.21,4.21,0,0,1,2.68-.23c1.14.19,2.48.5,4,.9s3.23.81,5.1,1.2a33.29,33.29,0,0,0,6,.65,20.36,20.36,0,0,0,5.85-.55,23.26,23.26,0,0,0,5.27-2.14,46.71,46.71,0,0,0,4.94-3.17c.21,0,.43,0,.63,0a6.19,6.19,0,0,1,4.36,1.52,9.59,9.59,0,0,1,2.52,4.13,27,27,0,0,1,1.17,6.18c.19,2.36.29,4.91.29,7.62,0,2.33,0,4.72-.13,7.17s-.13,5-.13,7.5a56.64,56.64,0,0,0,.93,10.66,21.69,21.69,0,0,0,3.37,8.34,16,16,0,0,0,6.56,5.43A25,25,0,0,0,802.09,165.39Z"/><path class="cls-1" d="M1114.69,114.9a7.07,7.07,0,0,0,3-4.33,28.61,28.61,0,0,0,.64-6.53c0-1.07,0-2.18-.06-3.32s-.07-2.34-.07-3.59c-1.24.9-2.73,1.9-4.45,3q-2.2,1.43-5.3,3.27c-2.07,1.22-4.46,2.55-7.18,4q.14,3.36,0,6.46c-.08,1.77-.25,3.63-.48,5.59a22.44,22.44,0,0,1-1.13,5q7.88-4.79,11.44-7.11C1112.56,116.39,1113.74,115.59,1114.69,114.9Z"/><path class="cls-1" d="M200.34,63.76a7.62,7.62,0,0,0,1.4-1.24c0,1.15,0,2.27-.06,3.37-.08,1.77-.25,3.63-.48,5.59a22.31,22.31,0,0,1-1.13,5q7.88-4.78,11.43-7.11c1.43-.9,2.61-1.7,3.56-2.39a7,7,0,0,0,3-4.33,28.57,28.57,0,0,0,.64-6.52q0-1.62-.06-3.33c-.05-1.14-.07-2.34-.07-3.59-1.25.91-2.73,1.9-4.46,3-1.46,1-3.23,2-5.29,3.27q-2.37,1.4-5.28,3A31.07,31.07,0,0,0,204,52.9c0-1.07,0-2.18-.07-3.32s-.06-2.34-.06-3.59c-1.25.9-2.74,1.9-4.46,3-1.47.95-3.23,2-5.3,3.27s-4.46,2.55-7.18,4c.09,2.24.09,4.4,0,6.46q-.12,2.66-.48,5.59a21.9,21.9,0,0,1-1.13,5q7.88-4.79,11.44-7.11C198.21,65.25,199.39,64.45,200.34,63.76Z"/><path class="cls-1" d="M959.76,196.27a21.77,21.77,0,0,1-1.13,5q7.88-4.77,11.44-7.11c1.42-.9,2.6-1.7,3.55-2.39a7,7,0,0,0,3-4.33,28.57,28.57,0,0,0,.64-6.52q0-1.62-.06-3.33c0-1.14-.06-2.34-.06-3.59q-1.87,1.37-4.46,3c-1.47,1-3.23,2-5.3,3.27s-4.46,2.55-7.18,4q.13,3.36,0,6.47Q960.12,193.33,959.76,196.27Z"/><path class="cls-1" d="M958.53,105a4.91,4.91,0,0,1,4.26,2q1.43,2,1.55,6.24t0,8.82q-.16,4.43-.45,8.91c-.19,3-.38,6-.55,9.05s-.26,6.11-.26,9.21A33.53,33.53,0,0,0,964,158a13.15,13.15,0,0,0,2.35,4.94,7.75,7.75,0,0,0,3.27,2.36,21.7,21.7,0,0,0,3.68,1,18,18,0,0,0,4.59.2,23.78,23.78,0,0,0,6.2-1.56,69.86,69.86,0,0,0,8.83-4.13q5.13-2.78,12.5-7.63a30.18,30.18,0,0,1-6.79,3.17,20,20,0,0,1-5.88,1,13.59,13.59,0,0,1-5.52-1.07,12.45,12.45,0,0,1-4.07-2.78,11.64,11.64,0,0,1-2.49-3.84,10.72,10.72,0,0,1-.78-4.27c0-1.5.13-3.65.26-6.43s.26-5.81.39-9.11.25-6.64.36-10,.16-6.5.16-9.3c0-1.9,0-3.56-.1-5a26,26,0,0,0-.29-3.23A5.82,5.82,0,0,0,978,98.18,9,9,0,0,0,973.26,97a16.67,16.67,0,0,0-5.07.81,33.15,33.15,0,0,0-5.07,2.1,49.14,49.14,0,0,0-5,2.94q-2.46,1.65-4.78,3.26a21.46,21.46,0,0,1,2.78-.77A12.44,12.44,0,0,1,958.53,105Z"/><path class="cls-1" d="M30.58,138.12c-1.25.9-2.73,1.89-4.46,3-1.46.95-3.23,2-5.29,3.26s-4.46,2.55-7.18,4q.13,3.36,0,6.46c-.08,1.77-.25,3.63-.48,5.59a22.44,22.44,0,0,1-1.13,5q7.88-4.78,11.44-7.11c1.42-.91,2.6-1.7,3.55-2.39a7.07,7.07,0,0,0,3-4.33,28.67,28.67,0,0,0,.64-6.53q0-1.62-.06-3.33C30.61,140.56,30.58,139.37,30.58,138.12Z"/><path class="cls-1" d="M989.14,196.27a21.26,21.26,0,0,1-1.13,5q7.89-4.77,11.44-7.11c1.42-.9,2.61-1.7,3.56-2.39a7,7,0,0,0,3-4.33,28.52,28.52,0,0,0,.65-6.52c0-1.08,0-2.19-.07-3.33s-.06-2.34-.06-3.59q-1.87,1.37-4.46,3-2.19,1.43-5.3,3.27t-7.17,4q.12,3.36,0,6.47Q989.49,193.33,989.14,196.27Z"/><path class="cls-1" d="M973.62,65.38a7.67,7.67,0,0,0,1.4-1.25c0,1.15,0,2.28-.06,3.38-.08,1.77-.25,3.63-.48,5.59a22.44,22.44,0,0,1-1.13,5q7.88-4.78,11.43-7.11c1.43-.91,2.61-1.7,3.56-2.39a7.07,7.07,0,0,0,3-4.33,28.67,28.67,0,0,0,.64-6.53q0-1.61-.06-3.33c-.05-1.14-.07-2.33-.07-3.58-1.25.9-2.73,1.89-4.46,3q-2.19,1.42-5.3,3.26-2.36,1.41-5.27,3a31.1,31.1,0,0,0,.44-5.52q0-1.62-.06-3.33c0-1.14-.06-2.33-.06-3.58q-1.87,1.35-4.46,3c-1.47,1-3.23,2-5.3,3.26s-4.46,2.55-7.18,4q.13,3.36,0,6.46-.12,2.66-.48,5.59a21.9,21.9,0,0,1-1.13,5q7.88-4.78,11.44-7.11C971.49,66.86,972.67,66.07,973.62,65.38Z"/><path class="cls-1" d="M1198.51,236.4c0-1.14-.07-2.34-.07-3.59-1.24.91-2.73,1.9-4.45,3q-2.21,1.42-5.3,3.27c-2.07,1.22-4.46,2.55-7.18,4,.09,2.24.09,4.4,0,6.46-.08,1.77-.25,3.63-.48,5.59a22.44,22.44,0,0,1-1.13,5q7.88-4.78,11.44-7.11c1.42-.9,2.6-1.7,3.55-2.39a7,7,0,0,0,3-4.33,28.57,28.57,0,0,0,.64-6.52Q1198.57,238.11,1198.51,236.4Z"/><path class="cls-1" d="M299.32,266.92q-1.87,1.35-4.46,3c-1.46.95-3.23,2-5.3,3.26s-4.46,2.55-7.17,4q.12,3.36,0,6.46-.13,2.66-.49,5.59a21.38,21.38,0,0,1-1.13,5q7.89-4.79,11.44-7.11c1.42-.91,2.61-1.7,3.55-2.39a7,7,0,0,0,3-4.33,28.62,28.62,0,0,0,.65-6.53c0-1.08,0-2.19-.07-3.33S299.32,268.17,299.32,266.92Z"/><path class="cls-1" d="M273.49,244.62c-1.25.9-2.74,1.9-4.46,3-1.47.95-3.23,2-5.3,3.27s-4.46,2.55-7.17,4q.12,3.36,0,6.46-.13,2.65-.49,5.59a21.9,21.9,0,0,1-1.13,5q7.89-4.78,11.44-7.11c1.42-.9,2.6-1.7,3.55-2.39a7,7,0,0,0,3-4.33,28.56,28.56,0,0,0,.65-6.53c0-1.07,0-2.18-.07-3.32S273.49,245.87,273.49,244.62Z"/><path class="cls-1" d="M962.57,271.89q-1.87,1.37-4.46,3c-1.47.95-3.23,2-5.3,3.27s-4.46,2.55-7.17,4c.08,2.24.08,4.4,0,6.46q-.14,2.65-.49,5.59a21.9,21.9,0,0,1-1.13,5q7.89-4.79,11.44-7.11c1.42-.9,2.61-1.7,3.55-2.39a7,7,0,0,0,3-4.33,28.52,28.52,0,0,0,.65-6.52c0-1.08,0-2.19-.07-3.33S962.57,273.14,962.57,271.89Z"/><path class="cls-1" d="M133.35,142.7A51.84,51.84,0,0,0,141,129.26a42.63,42.63,0,0,0,2.85-15.64,52.76,52.76,0,0,0-3.24-19.19,37,37,0,0,0-9.3-14,40.43,40.43,0,0,0-14.74-8.6A59.73,59.73,0,0,0,98.6,69l.34-.06c-26.57-.91-45.7,1-59.46,4-9.24,1.67-19.6,4.89-27.36,11-5.92,4.34-7.35,8-7.62,8.44l0,0a28.51,28.51,0,0,0-3.56,9c-6.79,32.24,24,19.09,24,19.09-32.13-1-15.27-25.05-14.26-26.45l.1-.12a28.23,28.23,0,0,1,9-6.7,75.77,75.77,0,0,1,29.3-7.21h4.26c1.27,0,2.57,0,3.91-.13l-3,87.05q8,1.23,14.25,1.61t10.63.39A62.81,62.81,0,0,0,93.64,167a75.75,75.75,0,0,0,14.73-5.13A76.83,76.83,0,0,0,122,153.69,60.47,60.47,0,0,0,133.35,142.7Zm-7.75-7.65a46.82,46.82,0,0,1-4.4,10.5,34.59,34.59,0,0,1-5.78,7.53,23.74,23.74,0,0,1-6,4.36,16.41,16.41,0,0,1-3.55,1,49.08,49.08,0,0,1-4.88.68c-2,.19-4.45.29-7.34.29s-6.28-.14-10-.42-8.13-.79-13.08-1.52l2.78-78.65c2.15-.13,4.33-.33,6.52-.61a59.93,59.93,0,0,1,7.5-.42A40.58,40.58,0,0,1,104,81.05a36.43,36.43,0,0,1,12.6,9.18,40.73,40.73,0,0,1,8,14,54,54,0,0,1,2.78,17.64A47.22,47.22,0,0,1,125.6,135.05Z"/><path class="cls-1" d="M468.28,185a19.73,19.73,0,0,0-8.42-4.66c-7.34-1.95-22.23-4.95-34.76-1.45-9.78,2.73-16.67,11.85-15.66,22,.41,4.07,2.16,7.7,6.82,8.62,0,0-5.09-18.24,6.79-22.48s34.36-1.49,39.45,2.54,14.85,15.91,3.4,25.46c-11,9.16-51.39,52.17-205.13,11.37a92.92,92.92,0,0,0,6.79-14.58c4.84-13.26,11.92-35.93,12.08-55.4q-.25-3.3-.26-7.79c0-3,.12-6.15.36-9.47s.6-6.63,1.1-9.95a73.91,73.91,0,0,1,1.94-9.24,32.71,32.71,0,0,1,2.94-7.37,10,10,0,0,1,4.07-4.26,4.2,4.2,0,0,1,2.68-.23c1.14.19,2.48.5,4,.9s3.23.81,5.1,1.2a33.19,33.19,0,0,0,6,.65,20.43,20.43,0,0,0,5.85-.55,23.19,23.19,0,0,0,5.26-2.14,48.16,48.16,0,0,0,5.69-3.71c2-1.51,4.39-3.3,7.11-5.37a23.32,23.32,0,0,1-3.23.72,20,20,0,0,1-2.72.19,18.53,18.53,0,0,1-4.2-.48c-1.38-.33-2.77-.69-4.16-1.1s-2.83-.78-4.27-1.1a19.79,19.79,0,0,0-4.43-.49,19.2,19.2,0,0,0-7,1.49A44.4,44.4,0,0,0,294,102.1a78.6,78.6,0,0,0-7.31,5.27q-3.58,2.91-6.62,5.82c0-1.64-.06-3.36-.16-5.17a16.63,16.63,0,0,0-1-5,8.63,8.63,0,0,0-2.78-3.75,8.47,8.47,0,0,0-5.33-1.48,17.34,17.34,0,0,0-5.59.93,34.84,34.84,0,0,0-5.49,2.46,64.23,64.23,0,0,0-5.46,3.39q-2.72,1.88-5.43,3.69a11.51,11.51,0,0,1,2.88-1,14.58,14.58,0,0,1,2.81-.29,8.09,8.09,0,0,1,5.39,1.62,9.59,9.59,0,0,1,2.82,4.2,20.62,20.62,0,0,1,1.06,5.72q.17,3.14.16,6.17,0,4.78-.06,10.76t-.16,12.05c-.07,4.05-.14,7.92-.23,11.6s-.15,6.82-.19,9.41l0,0c-.74,12.27-3.83,34.51-15.93,54.16-2-.57-4-1.14-6-1.74,0,0-53.68-17.06-92-3.94-10.67,3.65-19.4,11.75-23,22.43-3.09,9.12-2.78,20.31,11,28.46a41.11,41.11,0,0,0,17.89,5.43c17.66,1.32,62.27,1.1,92.92-30a80.27,80.27,0,0,0,8.2-9.84c42.11,9.7,142.67,28.23,200.3.24C456.56,233.63,497.32,212.08,468.28,185Zm-229.75,49.5c-27.15,30.33-114.75,48.78-107.11,8.69s105.41-14.63,105.41-14.63,1.93.54,5.43,1.45Q240.49,232.27,238.53,234.48Z"/><path class="cls-1" d="M789.13,75.62c46.66-6.15,74.24-16.55,74.24-16.55s8.91-3.5,14.73-1.66a34.83,34.83,0,0,1,.46,7q0,5.18-.2,18-.06,5.49-.19,13.18t-.29,18.13q-.17,10.44-.42,23.81t-.52,30.18l15.51-11.11a141,141,0,0,1,1.78-20.49,106,106,0,0,1,3.52-14.93,47.68,47.68,0,0,1,4-9.43q2-3.36,3.33-4.07a22.78,22.78,0,0,1,3.75-1.62,14.58,14.58,0,0,1,4.71-.77,9.57,9.57,0,0,1,4.5,1.06,11.52,11.52,0,0,1,3.52,2.85,13,13,0,0,1,2.29,4.07,14,14,0,0,1,.81,4.68,9.82,9.82,0,0,1-1.33,5.14A15.2,15.2,0,0,1,920,127a25.26,25.26,0,0,1-4.46,3q-2.41,1.29-4.62,2.26t-4.33,2.2q-1.87,1.09-4.16,2.55a44.7,44.7,0,0,0-4.56,3.33,12.31,12.31,0,0,1,3.84,1.35,24,24,0,0,1,2.95,1.94,21.22,21.22,0,0,1,2.58,2.52q2.71,2.72,5.75,6.14a90.21,90.21,0,0,0,6.34,6.47,45.51,45.51,0,0,0,6.88,5.26,15.88,15.88,0,0,0,7.4,2.49,19,19,0,0,0,6.78-.52,27,27,0,0,0,6.11-2.58,68.24,68.24,0,0,0,6.59-4.36q3.52-2.62,8.18-5.92a19.76,19.76,0,0,1-10.47,3.3,14,14,0,0,1-5.56-1.26,34.82,34.82,0,0,1-5.91-3.33,63.68,63.68,0,0,1-6-4.68q-3-2.62-5.69-5.3t-5.07-5.21l-4.1-4.39a46.74,46.74,0,0,0,7.78-2.68,32.22,32.22,0,0,0,7.37-4.49,23.42,23.42,0,0,0,5.46-6.34,15.84,15.84,0,0,0,2.13-8.2,14.43,14.43,0,0,0-.93-5.21,14.27,14.27,0,0,0-2.56-4.26,12.7,12.7,0,0,0-3.81-3,14.12,14.12,0,0,0-4.72-1.46,25.17,25.17,0,0,0-9,.65,45.13,45.13,0,0,0-9.6,3.55,56.89,56.89,0,0,0-9.21,5.79,55.53,55.53,0,0,0-7.91,7.33L895,58.69c0-1.25,0-2.6-.06-4.07a43.29,43.29,0,0,0-.36-4.39,24.39,24.39,0,0,0-.93-4.24,12.08,12.08,0,0,0-1.85-3.61,9.08,9.08,0,0,0-3-2.56s-.29-.54-1.84-.68a11.32,11.32,0,0,0-2.56-.29,18,18,0,0,0-5.84,1,36.62,36.62,0,0,0-5.82,2.55c-.48.26-1,.54-1.42.82-4.56,1.83-10.3,4.44-17.52,8.12a165.14,165.14,0,0,1-48,16c-21.86,3.6-46.49,3.17-48-16.55,0,0-2.33-20.15,18.24-19.51,18.47.57,41.55,1.65,42.09-18.38A22.15,22.15,0,0,0,814.8,1s-.22,22.48-17.18,21.63-41.15-2.33-46.88,9.76S742.47,81.77,789.13,75.62Z"/><path class="cls-1" d="M1152.24,135.64c-20.36-11.88-42.42-.42-57.69,13.15-4.15,3.69-7.29,5.18-9.68,5.4a8.41,8.41,0,0,1-2.64-2.67,12.45,12.45,0,0,1-1.58-4.32,29.64,29.64,0,0,1-.45-5.27q0-4.65.45-10.7t.65-13.28a26.66,26.66,0,0,0-1.49-10.24,18.42,18.42,0,0,0-4.23-6.62,17.54,17.54,0,0,0-5.76-3.75,25.9,25.9,0,0,0-6-1.62,24.34,24.34,0,0,0-8.53.52,42.63,42.63,0,0,0-9,3.17,51.7,51.7,0,0,0-8.56,5.17,55.8,55.8,0,0,0-7.4,6.52,53.74,53.74,0,0,0-.55-5.94,18.17,18.17,0,0,0-1.45-4.91,7.25,7.25,0,0,0-3.4-3.69,11,11,0,0,0-4.94-1.1,17.73,17.73,0,0,0-5.78,1,37.73,37.73,0,0,0-5.85,2.55,58.75,58.75,0,0,0-5.69,3.46q-2.77,1.9-5.3,3.71a27.26,27.26,0,0,1,3.78-1.39,13.06,13.06,0,0,1,3.39-.48,8,8,0,0,1,7.5,4.42q2.46,4.44,2.13,12.25,0,4.33-.19,11-.13,5.69-.45,14.47t-.91,21.26l15.45-11.11a36.76,36.76,0,0,0,.77-6q.2-3.45.29-7.4c.07-2.63.16-5.35.29-8.17s.38-5.58.75-8.28a50,50,0,0,1,1.61-7.62,22,22,0,0,1,2.94-6.3,13.25,13.25,0,0,1,11.64-5.88,27.62,27.62,0,0,1,9.2,1.29,12,12,0,0,1,5.63,4,16.17,16.17,0,0,1,2.81,6.82,55.15,55.15,0,0,1,.77,9.89c0,3.36-.1,6.75-.32,10.18s-.39,6.56-.52,9.4a51.37,51.37,0,0,0,.33,8.17,15.65,15.65,0,0,0,1.61,5.43,8.12,8.12,0,0,0,1,1.44c9.08,13.88,40-8.38,40-8.38s17-12.33,33.94-9.36,33.94,37.75,14,71.69-74.66,41.15-74.66,41.15c-93.32,14-186.65-26.73-221.85-42s-52.6.85-52.6.85c-25.46,21.3-18.94,36.8-10.07,45.61a29.69,29.69,0,0,0,26.71,8c18.46-3.75,10.5-20.55,10.5-20.55-5.51,22.9-25,12.72-25,12.72-14.65-10.14-12.54-20.64-7.34-28.25,6.25-9.15,17-14.07,28.07-13.79,26.3.65,65.47,16.73,86.17,26.1a212.9,212.9,0,0,0,37.15,12.88c116.56,28.46,188.52-1.64,214.82-35.11C1194.66,189.51,1172.6,147.52,1152.24,135.64Z"/></g></g></svg>